<?xml version="1.0" encoding="UTF-8"?>
<!DOCTYPE svg PUBLIC "-//W3C//DTD SVG 1.1//EN" "http://www.w3.org/Graphics/SVG/1.1/DTD/svg11.dtd">
<!-- Creator: CorelDRAW X6 -->
<svg xmlns="http://www.w3.org/2000/svg" xml:space="preserve" width="0.22222in" height="0.22222in" version="1.1" style="shape-rendering:geometricPrecision; text-rendering:geometricPrecision; image-rendering:optimizeQuality; fill-rule:evenodd; clip-rule:evenodd"
viewBox="0 0 222 222"
 xmlns:xlink="http://www.w3.org/1999/xlink">
 <defs>
  <style type="text/css">
   <![CDATA[
    .fil2 {fill:#07529D;fill-rule:nonzero}
    .fil3 {fill:#EBF0F3;fill-rule:nonzero}
    .fil1 {fill:#F3F6F8;fill-rule:nonzero}
    .fil0 {fill:#F3F6F8;fill-rule:nonzero;fill-opacity:0.000000}
   ]]>
  </style>
 </defs>
 <g id="outline">
  <metadata id="CorelCorpID_0Corel-Layer"/>
  <polygon class="fil0" points="222,222 0,222 0,0 222,0 "/>
  <polygon class="fil1" points="145,28 78,28 56,50 56,83 0,83 0,181 111,181 111,125 145,125 167,103 167,50 "/>
 </g>
 <g id="color_importance">
  <metadata id="CorelCorpID_1Corel-Layer"/>
  <g id="_413534648">
   <g>
    <g>
     <path class="fil2" d="M139 42l-56 0 -14 14 0 28 69 0 0 14 -28 0 0 14 28 0 14 -14 0 -42 -14 -14zm0 28l0 0 -56 0 0 -14 56 0 0 14z"/>
    </g>
   </g>
   <g>
    <g>
     <path class="fil2" d="M14 167l83 0 0 -69 -83 0 0 69zm14 -42l0 0 56 0 0 14 -56 0 0 -14z"/>
    </g>
   </g>
  </g>
 </g>
 <g id="icon_fg">
  <metadata id="CorelCorpID_2Corel-Layer"/>
  <g id="_413538560">
   <g>
    <polygon class="fil3" points="28,139 83,139 83,125 28,125 "/>
   </g>
   <g>
    <polygon class="fil3" points="83,56 83,69 139,69 139,56 "/>
   </g>
   <g>
    <polygon class="fil3" points="111,97 139,97 139,83 111,83 "/>
   </g>
  </g>
 </g>
</svg>
