<?xml version="1.0" encoding="UTF-8"?>
<!DOCTYPE svg PUBLIC "-//W3C//DTD SVG 1.1//EN" "http://www.w3.org/Graphics/SVG/1.1/DTD/svg11.dtd">
<!-- Creator: CorelDRAW X6 -->
<svg xmlns="http://www.w3.org/2000/svg" xml:space="preserve" width="0.22222in" height="0.22222in" version="1.1" style="shape-rendering:geometricPrecision; text-rendering:geometricPrecision; image-rendering:optimizeQuality; fill-rule:evenodd; clip-rule:evenodd"
viewBox="0 0 222 222"
 xmlns:xlink="http://www.w3.org/1999/xlink">
 <defs>
  <style type="text/css">
   <![CDATA[
    .fil2 {fill:#3F4243;fill-rule:nonzero}
    .fil1 {fill:#F3F6F8;fill-rule:nonzero}
    .fil0 {fill:#F3F6F8;fill-rule:nonzero;fill-opacity:0.000000}
   ]]>
  </style>
 </defs>
 <g id="outline">
  <metadata id="CorelCorpID_0Corel-Layer"/>
  <polygon class="fil0" points="222,222 0,222 0,0 222,0 "/>
  <path class="fil1" d="M208 90c0,-42 -34,-76 -76,-76 -21,0 -40,9 -54,22l0 0c-14,14 -22,33 -22,54 0,5 1,10 2,16l-45 45c-8,8 -12,18 -12,29 0,23 19,42 42,42 11,0 22,-4 29,-12l45 -45c5,1 11,2 16,2 21,0 40,-9 54,-22l0 0c14,-14 22,-33 22,-54z"/>
 </g>
 <g id="icon_bg">
  <metadata id="CorelCorpID_1Corel-Layer"/>
  <path class="fil2" d="M139 111l-28 -28 49 -49c-8,-4 -18,-7 -28,-7 -35,0 -62,28 -62,63 0,7 1,13 3,20 -15,15 -30,30 -51,51 -5,5 -8,12 -8,20 0,15 12,28 28,28 8,0 15,-3 20,-8 21,-21 36,-36 51,-51 6,2 13,3 20,3 35,0 63,-28 63,-62 0,-10 -3,-19 -7,-28l-49 49z"/>
 </g>
</svg>
