<?xml version="1.0" encoding="UTF-8"?>
<!DOCTYPE svg PUBLIC "-//W3C//DTD SVG 1.1//EN" "http://www.w3.org/Graphics/SVG/1.1/DTD/svg11.dtd">
<!-- Creator: CorelDRAW X6 -->
<svg xmlns="http://www.w3.org/2000/svg" xml:space="preserve" width="0.22222in" height="0.22222in" version="1.1" style="shape-rendering:geometricPrecision; text-rendering:geometricPrecision; image-rendering:optimizeQuality; fill-rule:evenodd; clip-rule:evenodd"
viewBox="0 0 222 222"
 xmlns:xlink="http://www.w3.org/1999/xlink">
 <defs>
  <style type="text/css">
   <![CDATA[
    .fil2 {fill:#BF7B10;fill-rule:nonzero}
    .fil3 {fill:#EBF0F3;fill-rule:nonzero}
    .fil1 {fill:#F3F6F8;fill-rule:nonzero}
    .fil0 {fill:#F3F6F8;fill-rule:nonzero;fill-opacity:0.000000}
   ]]>
  </style>
 </defs>
 <g id="outline">
  <metadata id="CorelCorpID_0Corel-Layer"/>
  <polygon class="fil0" points="222,222 0,222 0,0 222,0 "/>
  <polygon class="fil1" points="145,28 78,28 56,50 56,83 22,83 0,105 0,159 22,181 89,181 111,159 111,125 145,125 167,103 167,50 "/>
 </g>
 <g id="color_importance">
  <metadata id="CorelCorpID_1Corel-Layer"/>
  <g id="_384557096">
   <g>
    <path class="fil2" d="M83 97l-56 0 -14 14 0 42 14 14 56 0 14 -14 0 -42 -14 -14zm0 56l0 0 -56 0 0 -14 56 0 0 14zm0 -28l0 0 -56 0 0 -14 56 0 0 14z"/>
   </g>
  </g>
  <g id="_384560408">
   <g>
    <path class="fil2" d="M139 42l-56 0 -14 14 0 28 69 0 0 14 -36 0 8 8 0 6 28 0 14 -14 0 -42 -14 -14zm0 28l0 0 -56 0 0 -14 56 0 0 14z"/>
   </g>
  </g>
 </g>
 <g id="icon_fg">
  <metadata id="CorelCorpID_2Corel-Layer"/>
  <g id="_384561296">
   <g>
    <path class="fil3" d="M139 83l0 14 -36 0 -14 -14 50 0zm0 -28l0 0 -56 0 0 14 56 0 0 -14zm-56 83l0 0 -56 0 0 14 56 0 0 -14zm0 -28l0 0 -56 0 0 14 56 0 0 -14z"/>
   </g>
  </g>
 </g>
</svg>
