<?xml version="1.0" encoding="UTF-8"?>
<!DOCTYPE svg PUBLIC "-//W3C//DTD SVG 1.1//EN" "http://www.w3.org/Graphics/SVG/1.1/DTD/svg11.dtd">
<!-- Creator: CorelDRAW X6 -->
<svg xmlns="http://www.w3.org/2000/svg" xml:space="preserve" width="0.22222in" height="0.22222in" version="1.1" style="shape-rendering:geometricPrecision; text-rendering:geometricPrecision; image-rendering:optimizeQuality; fill-rule:evenodd; clip-rule:evenodd"
viewBox="0 0 222 222"
 xmlns:xlink="http://www.w3.org/1999/xlink">
 <defs>
  <style type="text/css">
   <![CDATA[
    .fil2 {fill:#07529D;fill-rule:nonzero}
    .fil3 {fill:#EBF0F3;fill-rule:nonzero}
    .fil1 {fill:#F3F6F8;fill-rule:nonzero}
    .fil0 {fill:#F3F6F8;fill-rule:nonzero;fill-opacity:0.000000}
   ]]>
  </style>
 </defs>
 <g id="outline">
  <metadata id="CorelCorpID_0Corel-Layer"/>
  <polygon class="fil0" points="222,222 0,222 0,0 222,0 "/>
  <path class="fil1" d="M160 167c-27,0 -50,-17 -59,-42l-23 0c-7,13 -21,21 -36,21 -23,0 -42,-19 -42,-42 0,-23 19,-42 42,-42 15,0 29,8 36,21l23 0c9,-24 32,-42 59,-42 34,0 63,28 63,63 0,34 -28,62 -63,62z"/>
 </g>
 <g id="color_importance">
  <metadata id="CorelCorpID_1Corel-Layer"/>
  <g id="_351472104">
   <g>
    <path class="fil2" d="M160 56c-24,0 -45,18 -48,42l-43 0c-3,-12 -14,-21 -27,-21 -15,0 -28,12 -28,28 0,15 12,28 28,28 13,0 24,-9 27,-21l43 0c3,23 23,42 48,42 27,0 49,-22 49,-49 0,-27 -22,-49 -49,-49zm0 69l0 0c-11,0 -21,-9 -21,-21 0,-12 9,-21 21,-21 11,0 21,9 21,21 0,11 -9,21 -21,21z"/>
   </g>
  </g>
 </g>
 <g id="icon_fg">
  <metadata id="CorelCorpID_2Corel-Layer"/>
  <g id="_351475320">
   <path class="fil3" d="M160 125c-11,0 -21,-9 -21,-21 0,-12 9,-21 21,-21 11,0 21,9 21,21 0,11 -9,21 -21,21z"/>
  </g>
 </g>
</svg>
